<?xml version="1.0" encoding="iso-8859-1"?>
<!-- Generator: Adobe Illustrator 19.0.0, SVG Export Plug-In . SVG Version: 6.00 Build 0)  -->
<svg version="1.1" id="Capa_1" xmlns="http://www.w3.org/2000/svg" xmlns:xlink="http://www.w3.org/1999/xlink" x="0px" y="0px"
	 viewBox="0 0 512.003 512.003" style="enable-background:new 0 0 512.003 512.003;" xml:space="preserve">
<g>
	<g>
		<g>
			<path d="M322.241,180.585v12.446c0,4.143,3.357,7.5,7.5,7.5c4.142,0,7.5-3.357,7.5-7.5v-12.446c0-4.143-3.358-7.5-7.5-7.5
				C325.599,173.084,322.241,176.442,322.241,180.585z"/>
			<path d="M79.338,436.519c-10.345-2.872-21.008-3.809-31.704-2.786l-17.938,1.719c-2.6,0.254-3.672-1.579-4.016-2.376
				c-0.343-0.797-0.93-2.836,1.033-4.55c43.019-37.569,69.697-89.571,75.12-146.426l3.797-39.799
				c0.003-0.032,0.007-0.064,0.009-0.096l7.412-77.69c3.4-35.639,19.861-68.529,46.353-92.611
				c26.49-24.082,60.796-37.346,96.597-37.346c29.572,0,57.987,8.932,82.176,25.831c3.396,2.372,8.07,1.543,10.444-1.854
				c2.372-3.395,1.542-8.071-1.854-10.444C320.047,29.423,288.66,19.556,256,19.556c-39.541,0-77.431,14.648-106.688,41.247
				c-29.258,26.599-47.439,62.925-51.194,102.287l-6.519,68.331c-10.202-3.95-20.73-9.588-31.411-16.84
				c-17.588-11.94-41.607-7.345-53.544,10.239c-11.939,17.585-7.345,41.606,10.24,53.546c21.369,14.508,43.293,24.865,65.275,30.881
				c-9.932,41.729-32.532,79.35-65.315,107.979c-6.322,5.522-8.263,14.071-4.942,21.781c3.32,7.711,10.862,12.174,19.224,11.376
				l17.938-1.719c8.854-0.849,17.691-0.071,26.26,2.308c0.672,0.186,1.347,0.275,2.011,0.275c3.285,0,6.301-2.176,7.223-5.495
				C85.666,441.761,83.329,437.627,79.338,436.519z M25.311,265.956c-10.742-7.293-13.549-21.967-6.255-32.71
				c7.291-10.74,21.964-13.545,32.708-6.253c12.975,8.809,25.851,15.474,38.362,19.876l-3.225,33.806
				c-0.443,4.647-1.048,9.258-1.793,13.829C65.06,288.886,44.981,279.31,25.311,265.956z"/>
			<path d="M174.762,180.585v12.446c0,4.143,3.357,7.5,7.5,7.5s7.5-3.357,7.5-7.5v-12.446c0-4.143-3.357-7.5-7.5-7.5
				S174.762,176.442,174.762,180.585z"/>
			<path d="M495.159,417.227c-32.782-28.63-55.382-66.249-65.314-107.978c21.982-6.015,43.906-16.374,65.274-30.882
				c17.585-11.94,22.179-35.96,10.241-53.544c-5.783-8.521-14.537-14.277-24.649-16.211c-10.115-1.935-20.374,0.186-28.897,5.97
				c-10.68,7.251-21.207,12.889-31.41,16.839l-6.52-68.332c-3.236-33.921-16.936-65.255-39.614-90.613
				c-2.763-3.086-7.504-3.353-10.592-0.591c-3.087,2.762-3.352,7.503-0.591,10.592c20.531,22.956,32.934,51.325,35.864,82.038
				l7.412,77.69c0.003,0.032,0.006,0.064,0.009,0.096l3.797,39.799c5.423,56.854,32.103,108.856,75.12,146.427
				c1.963,1.713,1.376,3.752,1.033,4.549c-0.344,0.797-1.402,2.625-4.016,2.376l-17.939-1.719
				c-26.349-2.524-52.087,6.853-70.634,25.727c-7.2,7.324-17.985,9.521-27.48,5.595l-16.171-6.688
				c-26.376-10.91-56.08-5.982-77.52,12.868c-9.443,8.302-23.684,8.302-33.127,0c-21.437-18.849-51.142-23.777-77.519-12.868
				l-16.172,6.688c-9.495,3.927-20.278,1.73-27.48-5.596c-1.61-1.638-3.3-3.226-5.023-4.723c-3.125-2.714-7.863-2.383-10.581,0.746
				c-2.716,3.127-2.382,7.864,0.746,10.581c1.427,1.239,2.826,2.555,4.16,3.911c11.506,11.708,28.742,15.219,43.91,8.943
				l16.173-6.689c21.054-8.711,44.767-4.774,61.88,10.272c7.544,6.633,17.007,9.95,26.469,9.95c9.462,0,18.924-3.316,26.469-9.95
				c17.113-15.047,40.823-18.981,61.881-10.272l16.172,6.689c15.169,6.272,32.403,2.764,43.91-8.943
				c15.363-15.629,36.689-23.395,58.505-21.308l17.94,1.719c8.37,0.796,15.903-3.665,19.223-11.376
				C503.422,431.298,501.481,422.748,495.159,417.227z M425.103,280.675l-3.225-33.805c12.515-4.403,25.391-11.069,38.361-19.876
				c5.207-3.532,11.475-4.827,17.652-3.646s11.524,4.697,15.057,9.902c7.293,10.742,4.486,25.414-6.255,32.708
				c-19.668,13.353-39.747,22.929-59.797,28.55C426.151,289.933,425.546,285.322,425.103,280.675z"/>
			<path d="M240.728,174.046c-7.298,0-13.235,5.937-13.235,13.235v15.274c0,15.721,12.789,28.51,28.509,28.51
				c15.72,0,28.509-12.789,28.509-28.51V187.28c0-7.298-5.936-13.235-13.235-13.235H240.728z M269.51,202.554
				c0,7.448-6.059,13.509-13.508,13.509c-7.447,0-13.508-6.06-13.508-13.509v-13.508h27.016V202.554z"/>
		</g>
	</g>
</g>
<g>
</g>
<g>
</g>
<g>
</g>
<g>
</g>
<g>
</g>
<g>
</g>
<g>
</g>
<g>
</g>
<g>
</g>
<g>
</g>
<g>
</g>
<g>
</g>
<g>
</g>
<g>
</g>
<g>
</g>
</svg>
