<svg viewBox="0 0 512 512" xmlns="http://www.w3.org/2000/svg"><path d="m478 40h-20v-10c0-16.542969-13.457031-30-30-30s-30 13.457031-30 30v10h-112v-10c0-16.542969-13.457031-30-30-30s-30 13.457031-30 30v10h-112v-10c0-16.542969-13.457031-30-30-30s-30 13.457031-30 30v10h-20c-18.746094 0-34 15.253906-34 34v404c0 18.746094 15.253906 34 34 34h444c18.746094 0 34-15.253906 34-34v-404c0-18.746094-15.253906-34-34-34zm-60-10c0-5.515625 4.484375-10 10-10s10 4.484375 10 10v66c0 5.515625-4.484375 10-10 10s-10-4.484375-10-10zm-172 0c0-5.515625 4.484375-10 10-10s10 4.484375 10 10v66c0 5.515625-4.484375 10-10 10s-10-4.484375-10-10zm-172 0c0-5.515625 4.484375-10 10-10s10 4.484375 10 10v66c0 5.515625-4.484375 10-10 10s-10-4.484375-10-10zm-40 30h20v36c0 16.542969 13.457031 30 30 30s30-13.457031 30-30v-36h112v36c0 16.542969 13.457031 30 30 30s30-13.457031 30-30v-36h112v36c0 16.542969 13.457031 30 30 30s30-13.457031 30-30v-36h20c7.71875 0 14 6.28125 14 14v90h-472v-90c0-7.71875 6.28125-14 14-14zm444 432h-444c-7.71875 0-14-6.28125-14-14v-294h426v107.851562c0 5.523438 4.476562 10 10 10s10-4.476562 10-10v-107.851562h26v294c0 7.71875-6.28125 14-14 14zm0 0"/><path d="m310.246094 353.613281 39.605468-38.605469c2.726563-2.65625 3.707032-6.632812 2.53125-10.25-1.175781-3.621093-4.304687-6.261718-8.070312-6.808593l-54.738281-7.953125-24.480469-49.601563c-1.683594-3.410156-5.160156-5.574219-8.96875-5.574219-3.804688 0-7.28125 2.164063-8.96875 5.574219l-24.476562 49.601563-54.738282 7.953125c-3.765625.546875-6.894531 3.1875-8.074218 6.808593-1.175782 3.617188-.191407 7.59375 2.53125 10.25l39.609374 38.605469-9.351562 54.519531c-.644531 3.75.898438 7.542969 3.980469 9.777344 3.078125 2.238282 7.164062 2.535156 10.53125.761719l48.957031-25.738281 48.957031 25.738281c1.464844.769531 3.0625 1.148437 4.652344 1.148437 2.074219 0 4.136719-.640624 5.878906-1.910156 3.078125-2.234375 4.621094-6.027344 3.980469-9.777344zm-17.726563-10.648437c-2.355469 2.296875-3.429687 5.605468-2.875 8.847656l6.8125 39.726562-35.675781-18.753906c-1.457031-.765625-3.054688-1.148437-4.652344-1.148437-1.601562 0-3.199218.382812-4.65625 1.148437l-35.675781 18.753906 6.8125-39.726562c.554687-3.242188-.519531-6.550781-2.875-8.847656l-28.863281-28.136719 39.886718-5.796875c3.257813-.472656 6.074219-2.519531 7.53125-5.46875l17.839844-36.144531 17.835938 36.144531c1.457031 2.949219 4.273437 4.996094 7.53125 5.46875l39.886718 5.796875zm0 0"/><path d="m255.84375 413.757812c-.019531 0-.042969 0-.066406 0-5.519532.039063-9.96875 4.542969-9.933594 10.066407l.15625 24.242187c.035156 5.5 4.507812 9.933594 10 9.933594h.0625c5.523438-.035156 9.972656-4.542969 9.9375-10.066406l-.15625-24.238282c-.035156-5.503906-4.507812-9.9375-10-9.9375zm0 0"/><path d="m369.425781 358.339844-23.773437-7.757813c-5.246094-1.714843-10.894532 1.152344-12.605469 6.402344-1.714844 5.25 1.152344 10.894531 6.402344 12.609375l23.769531 7.757812c1.03125.335938 2.078125.496094 3.105469.496094 4.210937 0 8.125-2.679687 9.503906-6.898437 1.714844-5.25-1.152344-10.894531-6.402344-12.609375zm0 0"/><path d="m195.117188 265.214844c1.957031 2.691406 5.003906 4.125 8.097656 4.125 2.039062 0 4.09375-.621094 5.871094-1.910156 4.46875-3.246094 5.457031-9.5 2.210937-13.96875l-15.390625-21.183594c-3.246094-4.46875-9.496094-5.457032-13.96875-2.214844-4.464844 3.246094-5.457031 9.5-2.210938 13.96875zm0 0"/><path d="m166.269531 350.582031-23.703125 7.761719c-5.246094 1.714844-8.109375 7.363281-6.390625 12.613281 1.378907 4.214844 5.292969 6.890625 9.5 6.890625 1.03125 0 2.082031-.160156 3.113281-.496094l23.703126-7.761718c5.246093-1.71875 8.109374-7.363282 6.394531-12.613282-1.722657-5.25-7.367188-8.109374-12.617188-6.394531zm0 0"/><path d="m302.824219 267.414062c1.78125 1.300782 3.84375 1.925782 5.890625 1.925782 3.082031 0 6.125-1.425782 8.085937-4.105469l15.460938-21.183594c3.253906-4.460937 2.277343-10.71875-2.183594-13.972656-4.460937-3.257813-10.714844-2.28125-13.972656 2.179687l-15.460938 21.183594c-3.253906 4.460938-2.28125 10.71875 2.179688 13.972656zm0 0"/><path d="m456 328.941406c-2.628906 0-5.210938 1.070313-7.070312 2.929688-1.859376 1.859375-2.929688 4.4375-2.929688 7.070312 0 2.628906 1.070312 5.207032 2.929688 7.070313 1.859374 1.859375 4.441406 2.929687 7.070312 2.929687s5.210938-1.070312 7.070312-2.929687c1.859376-1.863281 2.929688-4.441407 2.929688-7.070313 0-2.632812-1.070312-5.210937-2.929688-7.070312-1.859374-1.859375-4.441406-2.929688-7.070312-2.929688zm0 0"/></svg>